<mxfile host="app.diagrams.net" modified="2022-06-30T23:12:07.523Z" agent="5.0 (Windows NT 10.0; Win64; x64) AppleWebKit/537.36 (KHTML, like Gecko) Chrome/103.0.5060.53 Safari/537.36 Edg/103.0.1264.37" etag="pykt3dkPD8EcLaR-dPjN" version="20.0.4" type="github">
  <diagram id="borcwdKuGScCig1cbfVf" name="Page-1">
    <mxGraphModel dx="1865" dy="1716" grid="1" gridSize="10" guides="1" tooltips="1" connect="1" arrows="1" fold="1" page="1" pageScale="1" pageWidth="827" pageHeight="1169" math="0" shadow="0">
      <root>
        <mxCell id="0" />
        <mxCell id="1" parent="0" />
        <mxCell id="fe6bmEBZRNmW-MINHZof-1" value="Empleado" style="swimlane;childLayout=stackLayout;horizontal=1;startSize=30;horizontalStack=0;rounded=1;fontSize=14;fontStyle=0;strokeWidth=2;resizeParent=0;resizeLast=1;shadow=0;dashed=0;align=center;" vertex="1" parent="1">
          <mxGeometry x="120" width="160" height="120" as="geometry" />
        </mxCell>
        <mxCell id="fe6bmEBZRNmW-MINHZof-2" value="+IdEmpleado&#xa;Correo&#xa;Nombre&#xa;Contraseña" style="align=left;strokeColor=none;fillColor=none;spacingLeft=4;fontSize=12;verticalAlign=top;resizable=0;rotatable=0;part=1;" vertex="1" parent="fe6bmEBZRNmW-MINHZof-1">
          <mxGeometry y="30" width="160" height="90" as="geometry" />
        </mxCell>
        <mxCell id="fe6bmEBZRNmW-MINHZof-3" value="EmpleadoJuego" style="swimlane;childLayout=stackLayout;horizontal=1;startSize=30;horizontalStack=0;rounded=1;fontSize=14;fontStyle=0;strokeWidth=2;resizeParent=0;resizeLast=1;shadow=0;dashed=0;align=center;" vertex="1" parent="1">
          <mxGeometry x="360" width="160" height="120" as="geometry" />
        </mxCell>
        <mxCell id="fe6bmEBZRNmW-MINHZof-4" value="+Empleado-IdEmpleado&#xa;+JuegoCodigo" style="align=left;strokeColor=none;fillColor=none;spacingLeft=4;fontSize=12;verticalAlign=top;resizable=0;rotatable=0;part=1;" vertex="1" parent="fe6bmEBZRNmW-MINHZof-3">
          <mxGeometry y="30" width="160" height="90" as="geometry" />
        </mxCell>
        <mxCell id="fe6bmEBZRNmW-MINHZof-5" value="Juego" style="swimlane;childLayout=stackLayout;horizontal=1;startSize=30;horizontalStack=0;rounded=1;fontSize=14;fontStyle=0;strokeWidth=2;resizeParent=0;resizeLast=1;shadow=0;dashed=0;align=center;" vertex="1" parent="1">
          <mxGeometry x="360" y="200" width="160" height="120" as="geometry" />
        </mxCell>
        <mxCell id="fe6bmEBZRNmW-MINHZof-6" value="+Codigo&#xa;Nombre&#xa;Precio" style="align=left;strokeColor=none;fillColor=none;spacingLeft=4;fontSize=12;verticalAlign=top;resizable=0;rotatable=0;part=1;" vertex="1" parent="fe6bmEBZRNmW-MINHZof-5">
          <mxGeometry y="30" width="160" height="90" as="geometry" />
        </mxCell>
        <mxCell id="fe6bmEBZRNmW-MINHZof-7" value="JuegoEmpresa" style="swimlane;childLayout=stackLayout;horizontal=1;startSize=30;horizontalStack=0;rounded=1;fontSize=14;fontStyle=0;strokeWidth=2;resizeParent=0;resizeLast=1;shadow=0;dashed=0;align=center;" vertex="1" parent="1">
          <mxGeometry x="640" y="200" width="160" height="120" as="geometry" />
        </mxCell>
        <mxCell id="fe6bmEBZRNmW-MINHZof-8" value="+Empresa_IdEmpresa&#xa;+Juego_Codigo&#xa;FechaCreacion" style="align=left;strokeColor=none;fillColor=none;spacingLeft=4;fontSize=12;verticalAlign=top;resizable=0;rotatable=0;part=1;" vertex="1" parent="fe6bmEBZRNmW-MINHZof-7">
          <mxGeometry y="30" width="160" height="90" as="geometry" />
        </mxCell>
        <mxCell id="fe6bmEBZRNmW-MINHZof-9" value="Empresa" style="swimlane;childLayout=stackLayout;horizontal=1;startSize=30;horizontalStack=0;rounded=1;fontSize=14;fontStyle=0;strokeWidth=2;resizeParent=0;resizeLast=1;shadow=0;dashed=0;align=center;" vertex="1" parent="1">
          <mxGeometry x="640" width="160" height="120" as="geometry" />
        </mxCell>
        <mxCell id="fe6bmEBZRNmW-MINHZof-10" value="+IdEmpresa&#xa;Nombre" style="align=left;strokeColor=none;fillColor=none;spacingLeft=4;fontSize=12;verticalAlign=top;resizable=0;rotatable=0;part=1;" vertex="1" parent="fe6bmEBZRNmW-MINHZof-9">
          <mxGeometry y="30" width="160" height="90" as="geometry" />
        </mxCell>
        <mxCell id="fe6bmEBZRNmW-MINHZof-11" value="JuegoCategoria" style="swimlane;childLayout=stackLayout;horizontal=1;startSize=30;horizontalStack=0;rounded=1;fontSize=14;fontStyle=0;strokeWidth=2;resizeParent=0;resizeLast=1;shadow=0;dashed=0;align=center;" vertex="1" parent="1">
          <mxGeometry x="360" y="400" width="160" height="120" as="geometry" />
        </mxCell>
        <mxCell id="fe6bmEBZRNmW-MINHZof-12" value="+Juego_Codigo&#xa;+Categoria_CodigoCat" style="align=left;strokeColor=none;fillColor=none;spacingLeft=4;fontSize=12;verticalAlign=top;resizable=0;rotatable=0;part=1;" vertex="1" parent="fe6bmEBZRNmW-MINHZof-11">
          <mxGeometry y="30" width="160" height="90" as="geometry" />
        </mxCell>
        <mxCell id="fe6bmEBZRNmW-MINHZof-13" value="Categoria" style="swimlane;childLayout=stackLayout;horizontal=1;startSize=30;horizontalStack=0;rounded=1;fontSize=14;fontStyle=0;strokeWidth=2;resizeParent=0;resizeLast=1;shadow=0;dashed=0;align=center;" vertex="1" parent="1">
          <mxGeometry x="640" y="400" width="160" height="120" as="geometry" />
        </mxCell>
        <mxCell id="fe6bmEBZRNmW-MINHZof-14" value="+CodigoCat&#xa;Nombre&#xa;Descripción" style="align=left;strokeColor=none;fillColor=none;spacingLeft=4;fontSize=12;verticalAlign=top;resizable=0;rotatable=0;part=1;" vertex="1" parent="fe6bmEBZRNmW-MINHZof-13">
          <mxGeometry y="30" width="160" height="90" as="geometry" />
        </mxCell>
        <mxCell id="fe6bmEBZRNmW-MINHZof-18" value="" style="edgeStyle=elbowEdgeStyle;fontSize=12;html=1;endArrow=ERoneToMany;startArrow=ERmandOne;rounded=0;shadow=0;" edge="1" parent="1">
          <mxGeometry width="100" height="100" relative="1" as="geometry">
            <mxPoint x="439.5" y="200" as="sourcePoint" />
            <mxPoint x="439.5" y="120" as="targetPoint" />
          </mxGeometry>
        </mxCell>
        <mxCell id="fe6bmEBZRNmW-MINHZof-20" value="" style="fontSize=12;html=1;endArrow=ERoneToMany;startArrow=ERmandOne;rounded=0;shadow=0;elbow=vertical;entryX=-0.003;entryY=0.338;entryDx=0;entryDy=0;entryPerimeter=0;" edge="1" parent="1" target="fe6bmEBZRNmW-MINHZof-8">
          <mxGeometry width="100" height="100" relative="1" as="geometry">
            <mxPoint x="520" y="259.5" as="sourcePoint" />
            <mxPoint x="630" y="259.5" as="targetPoint" />
          </mxGeometry>
        </mxCell>
        <mxCell id="fe6bmEBZRNmW-MINHZof-21" value="" style="fontSize=12;html=1;endArrow=ERoneToMany;startArrow=ERmandOne;rounded=0;shadow=0;elbow=vertical;" edge="1" parent="1">
          <mxGeometry width="100" height="100" relative="1" as="geometry">
            <mxPoint x="719.5" y="200" as="sourcePoint" />
            <mxPoint x="720" y="120" as="targetPoint" />
          </mxGeometry>
        </mxCell>
        <mxCell id="fe6bmEBZRNmW-MINHZof-23" value="" style="fontSize=12;html=1;endArrow=ERoneToMany;startArrow=ERmandOne;rounded=0;shadow=0;elbow=vertical;" edge="1" parent="1">
          <mxGeometry width="100" height="100" relative="1" as="geometry">
            <mxPoint x="439.5" y="320" as="sourcePoint" />
            <mxPoint x="440" y="400" as="targetPoint" />
          </mxGeometry>
        </mxCell>
        <mxCell id="fe6bmEBZRNmW-MINHZof-25" value="" style="fontSize=12;html=1;endArrow=ERoneToMany;startArrow=ERmandOne;rounded=0;shadow=0;elbow=vertical;exitX=0;exitY=0.5;exitDx=0;exitDy=0;entryX=1;entryY=0.5;entryDx=0;entryDy=0;" edge="1" parent="1" source="fe6bmEBZRNmW-MINHZof-14" target="fe6bmEBZRNmW-MINHZof-12">
          <mxGeometry width="100" height="100" relative="1" as="geometry">
            <mxPoint x="160" y="510" as="sourcePoint" />
            <mxPoint x="310" y="460" as="targetPoint" />
          </mxGeometry>
        </mxCell>
        <mxCell id="fe6bmEBZRNmW-MINHZof-26" value="" style="fontSize=12;html=1;endArrow=ERoneToMany;startArrow=ERmandOne;rounded=0;shadow=0;elbow=vertical;entryX=0;entryY=0.5;entryDx=0;entryDy=0;exitX=1;exitY=0.5;exitDx=0;exitDy=0;" edge="1" parent="1" source="fe6bmEBZRNmW-MINHZof-2" target="fe6bmEBZRNmW-MINHZof-4">
          <mxGeometry width="100" height="100" relative="1" as="geometry">
            <mxPoint x="230" y="190" as="sourcePoint" />
            <mxPoint x="310" y="160" as="targetPoint" />
          </mxGeometry>
        </mxCell>
        <mxCell id="fe6bmEBZRNmW-MINHZof-27" value="ClienteCompraJuego" style="swimlane;childLayout=stackLayout;horizontal=1;startSize=30;horizontalStack=0;rounded=1;fontSize=14;fontStyle=0;strokeWidth=2;resizeParent=0;resizeLast=1;shadow=0;dashed=0;align=center;" vertex="1" parent="1">
          <mxGeometry x="120" y="200" width="160" height="120" as="geometry" />
        </mxCell>
        <mxCell id="fe6bmEBZRNmW-MINHZof-28" value="+IdCompra&#xa;FechaCompra&#xa;Juego_Codigo&#xa;Cliente_Apodo" style="align=left;strokeColor=none;fillColor=none;spacingLeft=4;fontSize=12;verticalAlign=top;resizable=0;rotatable=0;part=1;" vertex="1" parent="fe6bmEBZRNmW-MINHZof-27">
          <mxGeometry y="30" width="160" height="90" as="geometry" />
        </mxCell>
        <mxCell id="fe6bmEBZRNmW-MINHZof-29" value="Cliente" style="swimlane;childLayout=stackLayout;horizontal=1;startSize=30;horizontalStack=0;rounded=1;fontSize=14;fontStyle=0;strokeWidth=2;resizeParent=0;resizeLast=1;shadow=0;dashed=0;align=center;" vertex="1" parent="1">
          <mxGeometry x="-120" y="200" width="160" height="120" as="geometry" />
        </mxCell>
        <mxCell id="fe6bmEBZRNmW-MINHZof-30" value="+Apodo&#xa;Cartera&#xa;CorreoCliente&#xa;NombreCliente&#xa;Contraseña" style="align=left;strokeColor=none;fillColor=none;spacingLeft=4;fontSize=12;verticalAlign=top;resizable=0;rotatable=0;part=1;" vertex="1" parent="fe6bmEBZRNmW-MINHZof-29">
          <mxGeometry y="30" width="160" height="90" as="geometry" />
        </mxCell>
        <mxCell id="fe6bmEBZRNmW-MINHZof-31" value="" style="fontSize=12;html=1;endArrow=ERoneToMany;startArrow=ERmandOne;rounded=0;shadow=0;elbow=vertical;exitX=0;exitY=0.5;exitDx=0;exitDy=0;" edge="1" parent="1" source="fe6bmEBZRNmW-MINHZof-5">
          <mxGeometry width="100" height="100" relative="1" as="geometry">
            <mxPoint x="340" y="350" as="sourcePoint" />
            <mxPoint x="280" y="260" as="targetPoint" />
          </mxGeometry>
        </mxCell>
        <mxCell id="fe6bmEBZRNmW-MINHZof-32" value="" style="fontSize=12;html=1;endArrow=ERoneToMany;startArrow=ERmandOne;rounded=0;shadow=0;elbow=vertical;entryX=0;entryY=0.5;entryDx=0;entryDy=0;exitX=1.004;exitY=0.338;exitDx=0;exitDy=0;exitPerimeter=0;" edge="1" parent="1" source="fe6bmEBZRNmW-MINHZof-30" target="fe6bmEBZRNmW-MINHZof-27">
          <mxGeometry width="100" height="100" relative="1" as="geometry">
            <mxPoint x="30" y="500" as="sourcePoint" />
            <mxPoint x="130" y="400" as="targetPoint" />
          </mxGeometry>
        </mxCell>
        <mxCell id="fe6bmEBZRNmW-MINHZof-33" value="Biblioteca" style="swimlane;childLayout=stackLayout;horizontal=1;startSize=30;horizontalStack=0;rounded=1;fontSize=14;fontStyle=0;strokeWidth=2;resizeParent=0;resizeLast=1;shadow=0;dashed=0;align=center;" vertex="1" parent="1">
          <mxGeometry x="-120" y="400" width="240" height="160" as="geometry" />
        </mxCell>
        <mxCell id="fe6bmEBZRNmW-MINHZof-34" value="+idBiblioteca&#xa;TiempoJugado&#xa;CantidadJuegos&#xa;ClienteCompraJuego_Cliente_Apodo&#xa;ClienteCompraJuego_Juego_Codigo&#xa;ClienteCompraJuego_IdCompra" style="align=left;strokeColor=none;fillColor=none;spacingLeft=4;fontSize=12;verticalAlign=top;resizable=0;rotatable=0;part=1;" vertex="1" parent="fe6bmEBZRNmW-MINHZof-33">
          <mxGeometry y="30" width="240" height="130" as="geometry" />
        </mxCell>
        <mxCell id="fe6bmEBZRNmW-MINHZof-35" value="" style="fontSize=12;html=1;endArrow=ERmandOne;startArrow=ERmandOne;rounded=0;shadow=0;elbow=vertical;entryX=0.5;entryY=1;entryDx=0;entryDy=0;" edge="1" parent="1" target="fe6bmEBZRNmW-MINHZof-30">
          <mxGeometry width="100" height="100" relative="1" as="geometry">
            <mxPoint x="-40" y="400" as="sourcePoint" />
            <mxPoint x="50" y="330" as="targetPoint" />
          </mxGeometry>
        </mxCell>
      </root>
    </mxGraphModel>
  </diagram>
</mxfile>
